HIERARCHY
ROOT hip
{
  OFFSET 0.0 0.0 0.0
  CHANNELS 6 Xposition Yposition Zposition Zrotation Yrotation Xrotation
  JOINT abdomen
  {
    OFFSET 0.0 20.6881 -0.73152
    CHANNELS 3 Zrotation Xrotation Yrotation
    JOINT chest
    {
      OFFSET 0.0 11.7043 -0.48768
      CHANNELS 3 Zrotation Xrotation Yrotation
      JOINT neck
      {
        OFFSET 0.0 22.1894 -2.19456
        CHANNELS 3 Zrotation Xrotation Yrotation
        JOINT head
        {
          OFFSET -0.24384 7.07133 1.2192
          CHANNELS 3 Zrotation Xrotation Yrotation
          JOINT leftEye
          {
            OFFSET 4.14528 8.04674 8.04672
            CHANNELS 3 Zrotation Xrotation Yrotation
            End Site
            {
              OFFSET 1.0 0.0 0.0
            }
          }
          JOINT rightEye
          {
            OFFSET -3.6576 8.04674 8.04672
            CHANNELS 3 Zrotation Xrotation Yrotation
            End Site
            {
              OFFSET 1.0 0.0 0.0
            }
          }
        }
      }
      JOINT rCollar
      {
        OFFSET -2.68224 19.2634 -4.8768
        CHANNELS 3 Zrotation Xrotation Yrotation
        JOINT rShldr
        {
          OFFSET -8.77824 -1.95073 1.46304
          CHANNELS 3 Zrotation Xrotation Yrotation
          JOINT rForeArm
          {
            OFFSET -28.1742 -1.7115 0.48768
            CHANNELS 3 Zrotation Xrotation Yrotation
            JOINT rHand
            {
              OFFSET -22.5879 0.773209 7.07136
              CHANNELS 3 Zrotation Xrotation Yrotation
              JOINT rThumb1
              {
                OFFSET -1.2192 -0.487915 3.41376
                CHANNELS 3 Zrotation Xrotation Yrotation
                JOINT rThumb2
                {
                  OFFSET -3.37035 -0.52449 3.41376
                  CHANNELS 3 Zrotation Xrotation Yrotation
                  End Site
                  {
                    OFFSET -1.78271 -1.18214 1.43049
                  }
                }
              }
              JOINT rIndex1
              {
                OFFSET -7.75947 0.938293 5.60832
                CHANNELS 3 Zrotation Xrotation Yrotation
                JOINT rIndex2
                {
                  OFFSET -2.54057 -0.884171 1.56538
                  CHANNELS 3 Zrotation Xrotation Yrotation
                  End Site
                  {
                    OFFSET -1.62519 -0.234802 1.16502
                  }
                }
              }
              JOINT rMid1
              {
                OFFSET -8.24714 1.18213 3.41376
                CHANNELS 3 Zrotation Xrotation Yrotation
                JOINT rMid2
                {
                  OFFSET -3.10165 -0.590103 1.0647
                  CHANNELS 3 Zrotation Xrotation Yrotation
                  End Site
                  {
                    OFFSET -2.48547 -0.328903 0.83742
                  }
                }
              }
              JOINT rRing1
              {
                OFFSET -8.82822 0.546677 1.51678
                CHANNELS 3 Zrotation Xrotation Yrotation
                JOINT rRing2
                {
                  OFFSET -2.60934 -0.819778 -0.0198488
                  CHANNELS 3 Zrotation Xrotation Yrotation
                  End Site
                  {
                    OFFSET -2.33842 -0.294052 0.168128
                  }
                }
              }
              JOINT rPinky1
              {
                OFFSET -8.27202 -0.0477905 -0.4584
                CHANNELS 3 Zrotation Xrotation Yrotation
                JOINT rPinky2
                {
                  OFFSET -1.82734 -0.647385 -0.700984
                  CHANNELS 3 Zrotation Xrotation Yrotation
                  End Site
                  {
                    OFFSET -1.69225 -0.51767 -0.607171
                  }
                }
              }
            }
          }
        }
      }
      JOINT lCollar
      {
        OFFSET 2.68224 19.2634 -4.8768
        CHANNELS 3 Zrotation Xrotation Yrotation
        JOINT lShldr
        {
          OFFSET 8.77824 -1.95073 1.46304
          CHANNELS 3 Zrotation Xrotation Yrotation
          JOINT lForeArm
          {
            OFFSET 28.1742 -1.7115 0.48768
            CHANNELS 3 Zrotation Xrotation Yrotation
            JOINT lHand
            {
              OFFSET 22.5879 0.773209 7.07136
              CHANNELS 3 Zrotation Xrotation Yrotation
              JOINT lThumb1
              {
                OFFSET 1.2192 -0.487915 3.41376
                CHANNELS 3 Zrotation Xrotation Yrotation
                JOINT lThumb2
                {
                  OFFSET 3.37035 -0.52449 3.41376
                  CHANNELS 3 Zrotation Xrotation Yrotation
                  End Site
                  {
                    OFFSET 1.78271 -1.18214 1.43049
                  }
                }
              }
              JOINT lIndex1
              {
                OFFSET 7.75947 0.938293 5.60832
                CHANNELS 3 Zrotation Xrotation Yrotation
                JOINT lIndex2
                {
                  OFFSET 2.54057 -0.884171 1.56538
                  CHANNELS 3 Zrotation Xrotation Yrotation
                  End Site
                  {
                    OFFSET 1.62519 -0.234802 1.16502
                  }
                }
              }
              JOINT lMid1
              {
                OFFSET 8.24714 1.18213 3.41376
                CHANNELS 3 Zrotation Xrotation Yrotation
                JOINT lMid2
                {
                  OFFSET 3.10165 -0.590103 1.0647
                  CHANNELS 3 Zrotation Xrotation Yrotation
                  End Site
                  {
                    OFFSET 2.48547 -0.328903 0.83742
                  }
                }
              }
              JOINT lRing1
              {
                OFFSET 8.82822 0.546677 1.51678
                CHANNELS 3 Zrotation Xrotation Yrotation
                JOINT lRing2
                {
                  OFFSET 2.60934 -0.819778 -0.0198488
                  CHANNELS 3 Zrotation Xrotation Yrotation
                  End Site
                  {
                    OFFSET 2.33842 -0.294052 0.168128
                  }
                }
              }
              JOINT lPinky1
              {
                OFFSET 8.27202 -0.0477905 -0.4584
                CHANNELS 3 Zrotation Xrotation Yrotation
                JOINT lPinky2
                {
                  OFFSET 1.82734 -0.647385 -0.700984
                  CHANNELS 3 Zrotation Xrotation Yrotation
                  End Site
                  {
                    OFFSET 1.69225 -0.51767 -0.607171
                  }
                }
              }
            }
          }
        }
      }
    }
  }
  JOINT rButtock
  {
    OFFSET -8.77824 4.35084 1.2192
    CHANNELS 3 Zrotation Xrotation Yrotation
    JOINT rThigh
    {
      OFFSET 0.0 -1.70687 -2.19456
      CHANNELS 3 Zrotation Xrotation Yrotation
      JOINT rShin
      {
        OFFSET 0.0 -36.8199 0.73152
        CHANNELS 3 Zrotation Xrotation Yrotation
        JOINT rFoot
        {
          OFFSET 0.73152 -45.1104 -5.12064
          CHANNELS 3 Zrotation Xrotation Yrotation
          End Site
          {
            OFFSET -1.1221 -3.69964 12.103
          }
        }
      }
    }
  }
  JOINT lButtock
  {
    OFFSET 8.77824 4.35084 1.2192
    CHANNELS 3 Zrotation Xrotation Yrotation
    JOINT lThigh
    {
      OFFSET 0.0 -1.70687 -2.19456
      CHANNELS 3 Zrotation Xrotation Yrotation
      JOINT lShin
      {
        OFFSET 0.0 -36.8199 0.73152
        CHANNELS 3 Zrotation Xrotation Yrotation
        JOINT lFoot
        {
          OFFSET -0.73152 -45.1104 -5.12064
          CHANNELS 3 Zrotation Xrotation Yrotation
          End Site
          {
            OFFSET 1.1221 -3.69964 12.103
          }
        }
      }
    }
  }
}
MOTION
Frames: 7
Frame Time: 0.00833333
53.7548 83.4232 5.0504 -363.521 55.9876 -353.706 9.013 3.58323 6.39988 -0.119748 -20.7405 2.0471 2.01603 5.39757 0.189565 -5.83049 24.5103 3.61031 -0.0 0.0 0.0 -0.0 0.0 0.0 6.7456e-14 -4.77344e-13 6.61916e-13 78.94 57.2952 -14.4635 -17.796 -10.4689 33.5644 -0.218833 -13.2139 -1.89103 -6.09116e-10 2.34581e-09 -2.17063e-10 -1.04438e-09 4.06889e-09 -3.86368e-10 -6.09117e-10 2.34581e-09 -2.17075e-10 7.73091 5.47488 0.417314 -6.09123e-10 2.3458e-09 -2.17061e-10 2.90554 0.965183 0.102902 -6.0911e-10 2.34581e-09 -2.17071e-10 10.2786 0.731801 0.0259123 -6.09114e-10 2.34581e-09 -2.17067e-10 2.22167 -0.733487 -0.20892 6.7402e-14 -4.77329e-13 6.61692e-13 -78.4572 18.9175 24.2121 16.062 -8.74472 -29.8041 0.000319857 -0.358353 0.0503636 9.12029e-10 -2.30561e-10 2.72098e-09 1.57688e-09 -3.9771e-10 4.71012e-09 9.12025e-10 -2.30556e-10 2.72098e-09 -7.73091 5.47488 -0.417314 9.12025e-10 -2.30556e-10 2.72098e-09 -2.90554 0.965183 -0.102902 9.12025e-10 -2.30556e-10 2.72098e-09 -10.2786 0.731801 -0.0259123 9.12034e-10 -2.30557e-10 2.72098e-09 -2.22167 -0.733487 0.20892 -2.03217e-16 0.0 -3.88251e-19 24.1346 -10.7593 14.1346 0.0138111 14.235 0.372515 -2.79216 -16.2151 -15.2812 2.03217e-16 0.0 3.88251e-19 4.80069 -31.7671 -13.5779 0.117273 28.0442 -0.904565 -7.19977 -32.7557 -11.1804
54.5149 83.7319 5.3386 -363.98 54.547 -353.938 9.10616 3.65306 6.72399 -0.810384 -20.7615 2.00907 2.12452 5.21248 0.491994 -5.83161 24.6615 4.16008 -0.0 0.0 0.0 -0.0 0.0 0.0 -7.60499e-14 2.83846e-13 6.26256e-13 78.8456 58.0098 -13.8168 -17.9075 -10.5873 33.8139 -0.209384 -12.9302 -1.849 9.83791e-10 2.24948e-09 -3.31605e-10 1.70723e-09 3.89204e-09 -5.68648e-10 9.83789e-10 2.24949e-09 -3.31615e-10 7.73091 5.47488 0.417314 9.83786e-10 2.24949e-09 -3.31609e-10 2.90554 0.965183 0.102902 9.83796e-10 2.24949e-09 -3.3161e-10 10.2786 0.731801 0.0259123 9.83793e-10 2.24949e-09 -3.31606e-10 2.22167 -0.733487 -0.20892 -7.60631e-14 2.83863e-13 6.26076e-13 -77.8676 18.8498 24.4398 16.0106 -8.69677 -29.6956 0.000165354 -0.266167 0.0374075 2.58178e-09 -1.03451e-09 2.55167e-09 4.46368e-09 -1.78879e-09 4.41237e-09 2.58177e-09 -1.03451e-09 2.55166e-09 -7.73091 5.47488 -0.417314 2.58177e-09 -1.0345e-09 2.55167e-09 -2.90554 0.965183 -0.102902 2.58178e-09 -1.0345e-09 2.55167e-09 -10.2786 0.731801 -0.0259123 2.58179e-09 -1.03451e-09 2.55166e-09 -2.22167 -0.733487 0.20892 -2.03217e-16 0.0 -3.88251e-19 23.7476 -9.26775 14.8003 0.0100185 12.7814 0.307883 -2.55504 -15.4609 -14.8844 2.03217e-16 0.0 3.88251e-19 4.43985 -31.4796 -17.1351 0.0700644 22.0711 -0.809232 -3.11446 -36.0287 -4.44594
55.36970000000001 83.9051 5.75731 -364.816 53.2455 -354.6 9.24303 3.63206 7.01785 -1.42081 -20.7662 1.98363 2.28085 5.04486 0.761349 -5.87253 24.8023 4.64603 -0.0 0.0 0.0 -0.0 0.0 0.0 -1.57821e-13 7.57486e-13 5.75829e-13 78.9228 58.5565 -13.4579 -18.03 -10.7189 34.0875 -0.203723 -12.753 -1.82283 2.06369e-09 2.19897e-09 -5.22063e-10 3.57344e-09 3.79876e-09 -8.87878e-10 2.06369e-09 2.19898e-09 -5.22069e-10 7.73091 5.47488 0.417314 2.06369e-09 2.19898e-09 -5.22069e-10 2.90554 0.965183 0.102902 2.0637e-09 2.19898e-09 -5.22065e-10 10.2786 0.731801 0.0259123 2.0637e-09 2.19897e-09 -5.22059e-10 2.22167 -0.733487 -0.20892 -1.5781e-13 7.57502e-13 5.7568e-13 -77.3957 18.8998 24.6808 15.9428 -8.6342 -29.5521 3.14853e-05 -0.160225 0.0225183 3.36434e-09 -1.3703e-09 2.58675e-09 5.81699e-09 -2.37039e-09 4.47094e-09 3.36433e-09 -1.3703e-09 2.58674e-09 -7.73091 5.47488 -0.417314 3.36434e-09 -1.3703e-09 2.58674e-09 -2.90554 0.965183 -0.102902 3.36434e-09 -1.3703e-09 2.58674e-09 -10.2786 0.731801 -0.0259123 3.36435e-09 -1.3703e-09 2.58674e-09 -2.22167 -0.733487 0.20892 -2.03217e-16 0.0 -3.88251e-19 23.3856 -7.89608 15.354 0.00434306 11.6049 0.23506 -2.29044 -14.7892 -14.4372 2.03217e-16 0.0 3.88251e-19 4.14011 -31.302 -20.5421 0.0422424 17.1361 -0.769807 0.695715 -38.4167 1.1267
56.27760000000001 84.0982 6.256489999999999 -366.017 51.9517 -355.648 9.41777 3.49425 7.27298 -1.93188 -20.7488 1.97588 2.49924 4.90223 0.990815 -5.98065 24.9349 5.05906 -0.0 0.0 0.0 -0.0 0.0 0.0 -1.40141e-13 8.1536e-13 5.37491e-13 79.2445 58.9324 -13.4824 -18.18 -10.8826 34.422 -0.203299 -12.7375 -1.82055 2.43665e-09 2.4426e-09 -9.71715e-10 4.22107e-09 4.22188e-09 -1.66405e-09 2.43665e-09 2.4426e-09 -9.71717e-10 7.73091 5.47488 0.417314 2.43664e-09 2.4426e-09 -9.7172e-10 2.90554 0.965183 0.102902 2.43665e-09 2.4426e-09 -9.71715e-10 10.2786 0.731801 0.0259123 2.43665e-09 2.4426e-09 -9.71709e-10 2.22167 -0.733487 -0.20892 -1.40129e-13 8.15371e-13 5.37356e-13 -77.0776 19.1373 24.9563 15.8451 -8.54466 -29.345 -2.80619e-05 0.0188678 -0.00265115 2.67373e-09 -9.66154e-10 3.25443e-09 4.62378e-09 -1.67288e-09 5.62877e-09 2.67372e-09 -9.6615e-10 3.25443e-09 -7.73091 5.47488 -0.417314 2.67372e-09 -9.66151e-10 3.25443e-09 -2.90554 0.965183 -0.102902 2.67372e-09 -9.66151e-10 3.25443e-09 -10.2786 0.731801 -0.0259123 2.67373e-09 -9.6615e-10 3.25442e-09 -2.22167 -0.733487 0.20892 -2.03217e-16 0.0 -3.88251e-19 23.0637 -6.66454 15.7997 -0.00235094 10.7148 0.138314 -1.97326 -14.1867 -13.9404 2.03217e-16 0.0 3.88251e-19 3.87708 -31.3281 -24.1948 0.0146681 13.3266 -0.795064 3.61106 -40.1148 5.04739
57.312200000000004 84.1245 6.80915 -366.819 50.7391 -356.23 9.62157 3.26379 7.48286 -2.38419 -20.7168 1.97396 2.75229 4.7643 1.19711 -6.12266 25.087 5.43211 -0.0 0.0 0.0 -0.0 0.0 0.0 -6.77953e-14 6.6832e-13 4.85128e-13 79.8013 59.1891 -13.8503 -18.3515 -11.0715 34.8083 -0.206443 -12.8346 -1.8349 2.47641e-09 2.83992e-09 -1.61086e-09 4.29492e-09 4.91501e-09 -2.77227e-09 2.47641e-09 2.83992e-09 -1.61085e-09 7.73091 5.47488 0.417314 2.47641e-09 2.83992e-09 -1.61086e-09 2.90554 0.965183 0.102902 2.47642e-09 2.83992e-09 -1.61085e-09 10.2786 0.731801 0.0259123 2.47641e-09 2.83992e-09 -1.61085e-09 2.22167 -0.733487 -0.20892 -6.77989e-14 6.68324e-13 4.84997e-13 -76.8864 19.5293 25.2686 15.7236 -8.43381 -29.0893 0.000155051 0.271965 -0.0382212 1.0769e-09 -1.11027e-10 4.28089e-09 1.86409e-09 -1.95873e-10 7.41019e-09 1.07689e-09 -1.11023e-10 4.2809e-09 -7.73091 5.47488 -0.417314 1.0769e-09 -1.11025e-10 4.28089e-09 -2.90554 0.965183 -0.102902 1.0769e-09 -1.11024e-10 4.28089e-09 -10.2786 0.731801 -0.0259123 1.07691e-09 -1.11023e-10 4.28088e-09 -2.22167 -0.733487 0.20892 -2.03217e-16 0.0 -3.88251e-19 22.7604 -5.52418 16.1889 -0.0125947 9.98431 0.0169008 -1.63111 -13.6562 -13.4393 2.03217e-16 0.0 3.88251e-19 3.58846 -31.4207 -28.1035 -0.0231435 10.2038 -0.860973 6.32061 -41.4108 8.52208
58.5253 84.1081 7.2789 -366.918 49.7138 -356.026 9.87857 2.98163 7.6714 -2.7903 -20.6779 1.97532 3.0268 4.62949 1.38321 -6.25945 25.2351 5.75999 -0.0 0.0 0.0 -0.0 0.0 0.0 7.94279e-15 4.46712e-13 3.77903e-13 80.4971 59.296 -14.4255 -18.5101 -11.2471 35.171 -0.210447 -12.957 -1.85301 2.33904e-09 2.93753e-09 -2.07938e-09 4.06101e-09 5.08904e-09 -3.58622e-09 2.33904e-09 2.93753e-09 -2.07938e-09 7.73091 5.47488 0.417314 2.33903e-09 2.93753e-09 -2.07938e-09 2.90554 0.965183 0.102902 2.33904e-09 2.93753e-09 -2.07938e-09 10.2786 0.731801 0.0259123 2.33903e-09 2.93753e-09 -2.07937e-09 2.22167 -0.733487 -0.20892 7.91937e-15 4.4671e-13 3.77768e-13 -76.7678 19.941 25.5717 15.6033 -8.32438 -28.8382 0.00044565 0.464786 -0.0653217 -5.32886e-10 8.00288e-10 4.90802e-09 -9.17786e-10 1.37871e-09 8.50037e-09 -5.32897e-10 8.00294e-10 4.90803e-09 -7.73091 5.47488 -0.417314 -5.32887e-10 8.00289e-10 4.90802e-09 -2.90554 0.965183 -0.102902 -5.32893e-10 8.00292e-10 4.90802e-09 -10.2786 0.731801 -0.0259123 -5.32882e-10 8.00294e-10 4.90801e-09 -2.22167 -0.733487 0.20892 -2.03217e-16 0.0 -3.88251e-19 22.4975 -4.45838 16.4746 -0.0239615 9.48793 -0.0942441 -1.29748 -13.2248 -12.8942 2.03217e-16 0.0 3.88251e-19 3.26426 -31.4685 -31.4215 -0.0647727 7.90105 -0.937182 8.30603 -42.1724 10.944
59.994 84.0352 7.66625 -366.439 48.8481 -355.324 10.2126 2.68868 7.86247 -3.16276 -20.6399 1.97743 3.3096 4.49626 1.55208 -6.35121 25.3556 6.03717 -0.0 0.0 0.0 -0.0 0.0 0.0 3.58017e-14 2.80885e-13 1.7498e-13 81.2241 59.2234 -15.0623 -18.6234 -11.373 35.4342 -0.212453 -13.0176 -1.86197 2.18059e-09 2.28204e-09 -2.0172e-09 3.78539e-09 3.95485e-09 -3.4796e-09 2.18059e-09 2.28203e-09 -2.01719e-09 7.73091 5.47488 0.417314 2.18059e-09 2.28203e-09 -2.01719e-09 2.90554 0.965183 0.102902 2.1806e-09 2.28203e-09 -2.01719e-09 10.2786 0.731801 0.0259123 2.18058e-09 2.28203e-09 -2.01718e-09 2.22167 -0.733487 -0.20892 3.57632e-14 2.8088e-13 1.74831e-13 -76.6637 20.2394 25.8165 15.5099 -8.23968 -28.6446 0.000262974 0.463049 -0.0650788 -1.26238e-09 1.373e-09 4.37768e-09 -2.17756e-09 2.36894e-09 7.58448e-09 -1.26239e-09 1.37301e-09 4.3777e-09 -7.73091 5.47488 -0.417314 -1.26238e-09 1.373e-09 4.37769e-09 -2.90554 0.965183 -0.102902 -1.26238e-09 1.373e-09 4.37768e-09 -10.2786 0.731801 -0.0259123 -1.26237e-09 1.37301e-09 4.37767e-09 -2.22167 -0.733487 0.20892 -2.03217e-16 0.0 -3.88251e-19 22.2992 -3.44968 16.61 -0.0322421 9.30006 -0.160443 -1.00579 -12.9196 -12.2654 2.03217e-16 0.0 3.88251e-19 2.95227 -31.4857 -33.2956 -0.0967481 6.5514 -0.994482 9.02259 -42.3028 11.6874
